<svg xmlns="http://www.w3.org/2000/svg" style="display:none">
    <!-- Icone utilisateur -->
    <symbol id="icon-user" viewBox="0 0 24 24">
        <path d="M23.8 24c0-5.4-4.4-9.8-9.8-9.8S4.2 18.6 4.2 24h19.6z" />
        <circle cx="14" cy="5.3" r="5.3" />
    </symbol>
    <!-- Icone album -->
    <symbol id="icon-album" viewBox="0 0 24 24">
        <path d="M22 22H6c-1 0-2-.9-2-2V9c0-1.1.9-2 2-2h16c1.1 0 2 .9 2 2v11c0 1.1-.9 2-2 2zM6 8c-.6 0-1 .4-1 1v11c0 .6.4 1 1 1h16c.6 0 1-.4 1-1V9c0-.6-.4-1-1-1H6z" />
        <path d="M19.2 5.5 19 3.9c-.1-.8-.8-1.4-1.6-1.3L1.3 4.7c-.8.1-1.4.8-1.3 1.6l.6 7.2c.1.8.8 1.4 1.6 1.3h.1V7.5c0-1.4 1.1-2.5 2.5-2.5l14.4.5z" />
        <path d="M22.5 11 13.7 15c-.4.2-.8.1-1.1-.3l-.7-.8c-.3-.4-.7-.5-1.1-.3L6 15.5V17c0 .8.7 1.5 1.5 1.5h13c.8 0 1.5-.7 1.5-1.5v-6z" />
        <circle cx="13.8" cy="11.3" r="1.7" />
    </symbol>
    <!-- Icone calendrier -->
    <symbol id="icon-calendar" viewBox="0 0 24 24">
        <path d="M17.3 3.9H6.7a.9.9 0 1 1 0-1.8h10.6a.9.9 0 1 1 0 1.8z" />
        <path d="M22 7.6H2a.9.9 0 0 1-.9-.9v-2c0-1.6 1.3-2.9 2.9-2.9h1.4a.9.9 0 1 1 0 1.8H4c-.6 0-1.1.5-1.1 1.1v1.9h18.2v-1.9c0-.6-.5-1.1-1.1-1.1h-1.4a.9.9 0 1 1 0-1.8h1.4c1.6 0 2.9 1.3 2.9 2.9v2c0 .5-.4.9-.9.9z" />
        <path d="M20.6 22H3.4A3.4 3.4 0 0 1 0 18.6V6.8c0-.5.4-.9.9-.9h22.2c.5 0 .9.4.9.9v11.8A3.4 3.4 0 0 1 20.6 22zM1.8 7.7v10.9c0 .9.7 1.6 1.6 1.6h15.2c.9 0 1.6-.7 1.6-1.6V7.7H1.8z" />
        <path d="M6.3 13.3H5.2a.8.8 0 0 1-.8-.8v-1.1c0-.4.3-.8.8-.8h1.1c.4 0 .8.3.8.8v1.1c0 .4-.4.8-.8.8zM11.1 13.3H10a.8.8 0 0 1-.8-.8v-1.1c0-.4.3-.8.8-.8h1.1c.4 0 .8.3.8.8v1.1c0 .4-.3.8-.8.8zM15.9 13.3h-1.1a.8.8 0 0 1-.8-.8v-1.1c0-.4.3-.8.8-.8h1.1c.4 0 .8.3.8.8v1.1c0 .4-.3.8-.8.8zM6.3 18H5.2a.8.8 0 0 1-.8-.8v-1.1c0-.4.3-.8.8-.8h1.1c.4 0 .8.3.8.8v1.1c0 .4-.4.8-.8.8zM11.1 18H10a.8.8 0 0 1-.8-.8v-1.1c0-.4.3-.8.8-.8h1.1c.4 0 .8.3.8.8v1.1c0 .4-.3.8-.8.8zM15.9 18h-1.1a.8.8 0 0 1-.8-.8v-1.1c0-.4.3-.8.8-.8h1.1c.4 0 .8.3.8.8v1.1c0 .4-.3.8-.8.8z" />
        <path d="M6.1 5.3H5.4a.8.8 0 0 1-.8-.8V2.2c0-.4.3-.8.8-.8h.7c.4 0 .8.3.8.8v2.3c0 .4-.3.8-.8.8zM15.8 5.3h-.7a.8.8 0 0 1-.8-.8V2.2c0-.4.3-.8.8-.8h.7c.4 0 .8.3.8.8v2.3c0 .4-.3.8-.8.8z" />
    </symbol>
    <!-- Alphabetique -->
    <symbol id="icon-alphabetic" viewBox="0 0 91 91">
        <path d="M 74.893 30.444 H 51.164 c -2.209 0 -4 -1.791 -4 -4 s 1.791 -4 4 -4 h 23.729 c 2.209 0 4 1.791 4 4 S 77.102 30.444 74.893 30.444 z" />
        <path d="M 74.893 90 H 51.164 c -1.499 0 -2.873 -0.839 -3.558 -2.172 c -0.686 -1.334 -0.567 -2.939 0.306 -4.158 l 19.193 -26.786 H 51.164 c -2.209 0 -4 -1.791 -4 -4 s 1.791 -4 4 -4 h 23.729 c 1.499 0 2.873 0.839 3.558 2.172 c 0.686 1.334 0.567 2.939 -0.306 4.158 L 58.951 82 h 15.941 c 2.209 0 4 1.791 4 4 S 77.102 90 74.893 90 z" />
        <path d="M 28.051 90 c -2.209 0 -4 -1.791 -4 -4 V 4 c 0 -2.209 1.791 -4 4 -4 s 4 1.791 4 4 v 82 C 32.051 88.209 30.26 90 28.051 90 z" />
        <path d="M 28.051 90 c -1.024 0 -2.047 -0.391 -2.829 -1.172 L 12.279 75.885 c -1.562 -1.562 -1.562 -4.095 0 -5.656 c 1.563 -1.563 4.095 -1.563 5.657 0 l 10.115 10.114 l 10.116 -10.114 c 1.563 -1.563 4.095 -1.563 5.657 0 c 1.562 1.562 1.562 4.095 0 5.656 L 30.879 88.828 C 30.098 89.609 29.074 90 28.051 90 z" />
        <path d="M 74.893 41.872 c -2.209 0 -4 -1.791 -4 -4 V 15.864 c 0 -4.336 -3.528 -7.864 -7.864 -7.864 s -7.864 3.528 -7.864 7.864 v 22.008 c 0 2.209 -1.791 4 -4 4 s -4 -1.791 -4 -4 V 15.864 C 47.164 7.117 54.28 0 63.028 0 s 15.864 7.117 15.864 15.864 v 22.008 C 78.893 40.081 77.102 41.872 74.893 41.872 z" />
    </symbol>
    <!-- Icone fleche vers le haut -->
    <symbol id="icon-arrow-up" viewBox="0 0 24 24">
        <polygon points="12,1 4.8,12 8.6,12 8.6,23 15.4,23 15.4,12 19.2,12" />
    </symbol>
    <!-- Icone fleche vers le bas -->
    <symbol id="icon-arrow-down" viewBox="0 0 24 24">
        <polygon points="12,23 19.2,12 15.4,12 15.4,1 8.6,1 8.6,12 4.8,12" />
    </symbol>
    <!-- Localisation-->
    <symbol id="icon-place" viewBox="0 0 512 512">
        <path d="M256 0c-88.366 0-160 71.634-160 160 0 160 160 352 160 352s160-192 160-352c0-88.366-71.635-160-160-160zM256 256c-53.020 0-96-42.98-96-96s42.98-96 96-96 96 42.98 96 96-42.98 96-96 96z" />
    </symbol>
    <!-- Date-->
    <symbol id="icon-date" viewBox="0 0 24 24">
        <path d="M13 3c-4.97 0-9 4.03-9 9H1l3.89 3.89.07.14L9 12H6c0-3.87 3.13-7 7-7s7 3.13 7 7-3.13 7-7 7c-1.93 0-3.68-.79-4.94-2.06l-1.42 1.42C8.27 19.99 10.51 21 13 21c4.97 0 9-4.03 9-9s-4.03-9-9-9zm-1 5v5l4.28 2.54.72-1.21-3.5-2.08V8H12z" />
    </symbol>
    <!-- Icone person -->
    <symbol id="icon-person" viewBox="0 0 24 24" fill="#d34d1d">
        <path d="M23.8 24c0-5.4-4.4-9.8-9.8-9.8S4.2 18.6 4.2 24h19.6z" />
        <circle cx="14" cy="5.3" r="5.3" />
    </symbol>
    <!-- Etiquette-->
    <symbol id="icon-tag" viewBox="0 0 24 24" fill="#d34d1d">
        <path d="m21.41 11.58-9-9C12.05 2.22 11.55 2 11 2H4c-1.1 0-2 .9-2 2v7c0 .55.22 1.05.59 1.42l9 9c.36.36.86.58 1.41.58.55 0 1.05-.22 1.41-.59l7-7c.37-.36.59-.86.59-1.41 0-.55-.23-1.06-.59-1.42zM5.5 7C4.67 7 4 6.33 4 5.5S4.67 4 5.5 4 7 4.67 7 5.5 6.33 7 5.5 7z" />
    </symbol>
    <!-- Camera-->
    <symbol id="icon-camera" viewBox="0 0 24 24">
        <circle cx="12" cy="12" r="3.2" />
        <path d="M9 2L7.17 4H4c-1.1 0-2 .9-2 2v12c0 1.1.9 2 2 2h16c1.1 0 2-.9 2-2V6c0-1.1-.9-2-2-2h-3.17L15 2H9zm3 15c-2.76 0-5-2.24-5-5s2.24-5 5-5 5 2.24 5 5-2.24 5-5 5z" />
    </symbol>
    <!-- EXIF pour fancybox-->
    <symbol id="icon-exif" viewBox="0 0 1024 1024" fill="#ddd">
        <path d="M928 224H780.816L704 96H320l-76.8 128H96c-32 0-96 32-96 95.008V832c0 53.008 48 96 89.328 96H930c42 0 94-44.992 94-94.992V320c0-32-32-96-96-96zm32 609.008c0 12.624-20.463 30.288-29.999 31.008H89.521c-7.408-.609-25.52-15.04-25.52-32.016V319.008c0-20.272 27.232-30.496 32-31.008h183.44l76.8-128h313.647l57.12 96.945 17.6 31.055H928c22.56 0 31.68 29.472 32 32v513.008zM512.001 320c-123.712 0-224 100.288-224 224s100.288 224 224 224 224-100.288 224-224-100.288-224-224-224zm0 384c-88.224 0-160-71.776-160-160s71.776-160 160-160 160 71.776 160 160-71.776 160-160 160z"/>
    </symbol>
    <!-- Focale-->
    <symbol id="icon-focal" viewBox="0 0 512 512">
        <path d="M409.313 70.688l56.010-31.803-13.56-23.905-424.608 241.12 431.837 240.956 13.386-23.997-50.714-28.294c32.801-47.379 117.729-201.089-12.351-374.077zM397.548 431.296l-70.231-39.188c31.803-18.050 54.288-71.394 54.288-136.118 0-66.373-23.666-120.688-56.762-137.336l60.363-34.276c124.38 162.616 41.012 306.503 12.342 346.92zM303.385 140.772c23.997 0 50.733 47.315 50.733 115.219s-26.736 115.219-50.733 115.219-50.742-47.315-50.742-115.219 26.746-115.219 50.742-115.219zM242.519 165.4c-10.894 24.482-17.373 55.891-17.373 90.59 0 33.635 6.13 64.129 16.428 88.281l-158.382-88.391 159.327-90.479z" />
    </symbol>
    <!-- Ouverture-->
    <symbol id="icon-aperture" viewBox="0 0 24 24">
        <path d="M9.4 10.5l4.77-8.26C13.47 2.09 12.75 2 12 2c-2.4 0-4.6.85-6.32 2.25l3.66 6.35.06-.1zM21.54 9c-.92-2.92-3.15-5.26-6-6.34L11.88 9h9.66zm.26 1h-7.49l.29.5 4.76 8.25C21 16.97 22 14.61 22 12c0-.69-.07-1.35-.2-2zM8.54 12l-3.9-6.75C3.01 7.03 2 9.39 2 12c0 .69.07 1.35.2 2h7.49l-1.15-2zm-6.08 3c.92 2.92 3.15 5.26 6 6.34L12.12 15H2.46zm11.27 0l-3.9 6.76c.7.15 1.42.24 2.17.24 2.4 0 4.6-.85 6.32-2.25l-3.66-6.35-.93 1.6z" />
    </symbol>
    <!-- Vitesse-->
    <symbol id="icon-speed" viewBox="0 0 24 24">
        <path d="M15 1H9v2h6V1zm4.03 6.39l1.42-1.42c-.43-.51-.9-.99-1.41-1.41l-1.42 1.42C16.07 4.74 14.12 4 12 4c-4.97 0-9 4.03-9 9s4.02 9 9 9 9-4.03 9-9c0-2.12-.74-4.07-1.97-5.61zM12 20c-3.87 0-7-3.13-7-7s3.13-7 7-7 7 3.13 7 7-3.13 7-7 7zm-.32-5H6.35c.57 1.62 1.82 2.92 3.41 3.56l-.11-.06 2.03-3.5zm5.97-4c-.57-1.6-1.78-2.89-3.34-3.54L12.26 11h5.39zm-7.04 7.83c.45.11.91.17 1.39.17 1.34 0 2.57-.45 3.57-1.19l-2.11-3.9-2.85 4.92zM7.55 8.99C6.59 10.05 6 11.46 6 13c0 .34.04.67.09 1h4.72L7.55 8.99zm8.79 8.14C17.37 16.06 18 14.6 18 13c0-.34-.04-.67-.09-1h-4.34l2.77 5.13zm-3.01-9.98C12.9 7.06 12.46 7 12 7c-1.4 0-2.69.49-3.71 1.29l2.32 3.56 2.72-4.7z" />
    </symbol>
    <!-- ISO-->
    <symbol id="icon-iso" viewBox="0 0 24 24">
        <path d="M23.498 4.847H0.502c-0.277 0 -0.502 0.225 -0.502 0.502v13.303c0 0.277 0.225 0.502 0.502 0.502h22.997c0.277 0 0.502 -0.225 0.502 -0.502V5.348c0 -0.277 -0.225 -0.502 -0.502 -0.502M4.516 16.44H2.152V7.505h2.364zm4.811 0.165c-1.127 0 -2.419 -0.412 -3.381 -1.278l1.347 -1.622c0.632 0.509 1.43 0.866 2.089 0.866 0.715 0 1.017 -0.234 1.017 -0.632 0 -0.426 -0.454 -0.564 -1.21 -0.866l-1.113 -0.467c-0.962 -0.385 -1.801 -1.196 -1.801 -2.488 0 -1.526 1.375 -2.777 3.326 -2.777 1.017 0 2.144 0.385 2.969 1.196l-1.182 1.485c-0.605 -0.426 -1.127 -0.646 -1.787 -0.646 -0.577 0 -0.935 0.206 -0.935 0.605 0 0.426 0.509 0.577 1.32 0.893l1.086 0.426c1.113 0.44 1.746 1.21 1.746 2.447 0 1.512 -1.265 2.859 -3.491 2.859m8.687 0c-2.474 0 -4.151 -1.732 -4.151 -4.673 0 -2.942 1.677 -4.591 4.151 -4.591s4.151 1.663 4.151 4.591c0 2.942 -1.677 4.673 -4.151 4.673" />
        <path d="M18.014 9.375c-1.072 0 -1.732 0.935 -1.732 2.557s0.66 2.639 1.732 2.639 1.732 -1.017 1.732 -2.639 -0.66 -2.557 -1.732 -2.557" />
    </symbol>
    <!-- Photo -->
    <symbol id="icon-photo" viewBox="0 0 91 91">
        <path fill="currentColor" d="M 85.414 11.8 H 4.586 C 2.053 11.8 0 13.853 0 16.386 v 57.228 C 0 76.147 2.053 78.2 4.586 78.2 h 80.828 c 2.533 0 4.586 -2.053 4.586 -4.586 V 16.386 C 90 13.853 87.947 11.8 85.414 11.8 z M 36.475 25.917 c 3.922 0 7.101 3.179 7.101 7.101 c 0 3.922 -3.179 7.101 -7.101 7.101 c -3.922 0 -7.101 -3.179 -7.101 -7.101 C 29.375 29.096 32.554 25.917 36.475 25.917 z M 81.269 73.163 H 8.731 c -2.273 0 -4.116 -1.843 -4.116 -4.116 l 15.26 -18.195 c 2.753 -3.282 7.745 -3.448 10.71 -0.355 l 0.963 1.005 c 2.991 3.12 8.038 2.919 10.771 -0.43 l 7.714 -9.451 c 2.809 -3.441 8.034 -3.542 10.973 -0.21 l 24.38 27.637 C 85.385 71.32 83.542 73.163 81.269 73.163 z"/>
    </symbol>
    <!-- Copyright -->
    <symbol id="icon-copy" viewBox="0 0 120 120">
        <path d="M 45 0 C 20.147 0 0 20.147 0 45 c 0 24.853 20.147 45 45 45 s 45 -20.147 45 -45 C 90 20.147 69.853 0 45 0 z M 45 62.438 c 4.147 0 8.168 -1.485 11.322 -4.183 l 7.799 9.119 C 58.796 71.93 52.005 74.438 45 74.438 c -16.233 0 -29.439 -13.206 -29.439 -29.438 c 0 -16.233 13.206 -29.439 29.439 -29.439 c 7.005 0 13.796 2.509 19.121 7.064 l -7.799 9.119 c -3.154 -2.697 -7.176 -4.183 -11.322 -4.183 c -9.616 0 -17.439 7.823 -17.439 17.439 C 27.561 54.615 35.384 62.438 45 62.438 z" />
    </symbol>
    <!-- Fichier -->
    <symbol id="icon-file" viewBox="0 0 32 32">
        <polygon points="20,2.6 20,8 25.4,8 	" />
        <path d="M23.5,10H19c-0.6,0-1-0.4-1-1V2H7C6.4,2,6,2.4,6,3v26c0,0.6,0.4,1,1,1h18c0.6,0,1-0.4,1-1V12.5C26,11.1,24.9,10,23.5,10z" />
    </symbol>
    <!-- Repertoire -->
    <symbol id="icon-dir" viewBox="0 0 91 91">
        <path d="M 89.475 31.953 c -0.56 -0.816 -1.485 -1.304 -2.475 -1.304 H 73.97 v -9.181 c 0 -1.657 -1.343 -3 -3 -3 H 30.857 l -2.408 -4.916 c -0.504 -1.028 -1.549 -1.68 -2.694 -1.68 H 3 c -1.657 0 -3 1.343 -3 3 v 60.254 c 0 0.071 0.016 0.137 0.021 0.207 c 0.006 0.083 0.012 0.164 0.025 0.246 c 0.024 0.158 0.063 0.309 0.11 0.458 c 0.02 0.061 0.033 0.123 0.057 0.183 c 0.083 0.211 0.184 0.412 0.31 0.596 c 0.001 0.002 0.002 0.005 0.003 0.007 c 0.009 0.013 0.022 0.023 0.031 0.036 c 0.118 0.166 0.254 0.318 0.402 0.456 c 0.052 0.049 0.109 0.091 0.164 0.135 c 0.119 0.096 0.243 0.183 0.376 0.26 c 0.065 0.038 0.129 0.074 0.196 0.107 c 0.143 0.069 0.292 0.124 0.446 0.17 c 0.062 0.019 0.12 0.042 0.184 0.057 c 0.218 0.05 0.442 0.083 0.675 0.083 h 67.97 c 1.239 0 2.352 -0.763 2.798 -1.919 l 16.03 -41.477 C 90.155 33.808 90.034 32.769 89.475 31.953 z M 23.884 17.873 l 2.408 4.916 c 0.504 1.028 1.549 1.68 2.694 1.68 H 67.97 v 6.181 H 19.03 c -1.24 0 -2.352 0.762 -2.798 1.918 L 6 59.042 v -41.17 H 23.884 z" />
    </symbol>
    <!-- Blog -->
    <symbol id="icon-blog" viewBox="0 0 56 56">
        <path d="M 7.7148 49.5742 L 48.2852 49.5742 C 53.1836 49.5742 55.6446 47.1367 55.6446 42.3086 L 55.6446 13.6914 C 55.6446 8.8633 53.1836 6.4258 48.2852 6.4258 L 7.7148 6.4258 C 2.8398 6.4258 .3554 8.8398 .3554 13.6914 L .3554 42.3086 C .3554 47.1602 2.8398 49.5742 7.7148 49.5742 Z M 7.7851 45.8008 C 5.4413 45.8008 4.1288 44.5586 4.1288 42.1211 L 4.1288 13.8789 C 4.1288 11.4414 5.4413 10.1992 7.7851 10.1992 L 48.2147 10.1992 C 50.5350 10.1992 51.8708 11.4414 51.8708 13.8789 L 51.8708 42.1211 C 51.8708 44.5586 50.5350 45.8008 48.2147 45.8008 Z" />
    </symbol>
    <!-- Mosaique-->
    <symbol id="icon-mosaic" viewBox="0 0 95.5 95.5">
        <path d="M39.101,0H2C0.896,0,0,0.896,0,2v37.102c0,1.104,0.896,2,2,2h37.101c1.104,0,2-0.896,2-2V2 C41.101,0.896,40.205,0,39.101,0z" />
        <path d="M93.5,0H56.398c-1.104,0-2,0.896-2,2v37.102c0,1.104,0.896,2,2,2H93.5c1.104,0,2-0.896,2-2V2C95.5,0.896,94.605,0,93.5,0z" />
        <path d="M39.101,54.398H2c-1.104,0-2,0.896-2,2V93.5c0,1.104,0.896,2,2,2h37.101c1.104,0,2-0.896,2-2V56.398 C41.101,55.295,40.205,54.398,39.101,54.398z" />
        <path d="M93.5,54.398H56.398c-1.104,0-2,0.896-2,2V93.5c0,1.104,0.896,2,2,2H93.5c1.104,0,2-0.896,2-2V56.398 C95.5,55.295,94.605,54.398,93.5,54.398z" />
    </symbol>
    <!-- Recherche -->
    <symbol id="icon-search" viewBox="0 0 91 91">
        <path d="M 80.496 9.503 c -12.65 -12.65 -33.236 -12.65 -45.887 0 c 0 0 0 0 0 0 C 22.795 21.319 22.018 40.051 32.27 52.78 L 1.025 84.025 c -1.367 1.366 -1.367 3.583 0 4.949 C 1.708 89.658 2.604 90 3.5 90 s 1.792 -0.342 2.475 -1.025 L 37.219 57.73 c 5.914 4.764 13.123 7.149 20.333 7.149 c 8.309 0 16.618 -3.162 22.943 -9.488 C 93.147 42.739 93.147 22.155 80.496 9.503 z M 75.547 50.441 c -9.922 9.921 -26.066 9.921 -35.988 0 c -9.922 -9.922 -9.922 -26.066 0 -35.988 v 0 c 9.921 -9.922 26.066 -9.922 35.988 0 S 85.469 40.52 75.547 50.441 z" />
        <path d="M 41.885 38.682 c -1.843 0 -3.386 -1.439 -3.492 -3.303 c -0.336 -5.951 1.887 -11.78 6.098 -15.992 c 5.301 -5.301 13.091 -7.367 20.329 -5.394 c 1.864 0.508 2.964 2.433 2.456 4.297 c -0.509 1.865 -2.431 2.964 -4.298 2.457 c -4.815 -1.316 -10.008 0.06 -13.537 3.59 c -2.803 2.803 -4.283 6.685 -4.059 10.648 c 0.109 1.93 -1.367 3.583 -3.297 3.691 C 42.019 38.68 41.952 38.682 41.885 38.682 z" />
    </symbol>
    <!-- Poubelle -->
    <symbol id="icon-trash" viewBox="0 0 16 16">
        <path fill-rule="evenodd" clip-rule="evenodd" d="M10 3h3v1h-1v9l-1 1H4l-1-1V4H2V3h3V2a1 1 0 0 1 1-1h3a1 1 0 0 1 1 1v1zM9 2H6v1h3V2zM4 13h7V4H4v9zm2-8H5v7h1V5zm1 0h1v7H7V5zm2 0h1v7H9V5z"/>
    </symbol>
    <!-- Accueil -->
    <symbol id="icon-home" viewBox="0 0 24 24">
        <path d="M12 3s-6.186 5.34-9.643 8.232c-.203.184-.357.452-.357.768 0 .553.447 1 1 1h2v7c0 .553.447 1 1 1h3c.553 0 1-.448 1-1v-4h4v4c0 .552.447 1 1 1h3c.553 0 1-.447 1-1v-7h2c.553 0 1-.447 1-1 0-.316-.154-.584-.383-.768-3.433-2.892-9.617-8.232-9.617-8.232z" />
    </symbol>
    <!-- Close -->
    <symbol id="icon-close" viewBox="0 0 32 32" fill="#d34d1d">
        <path class="bentblocks_een" d="M24.485,7.515c-4.686-4.686-12.284-4.686-16.971,0c-4.686,4.686-4.686,12.284,0,16.971
	c4.686,4.686,12.284,4.686,16.971,0C29.172,19.799,29.172,12.201,24.485,7.515z M23.071,23.071c-3.908,3.908-10.234,3.908-14.142,0
	c-3.899-3.899-3.899-10.243,0-14.142c3.908-3.908,10.234-3.909,14.142,0C24.96,10.818,26,13.329,26,16
	C26,18.671,24.96,21.182,23.071,23.071z M21.657,11.757L17.414,16l4.243,4.243l-1.414,1.414L16,17.414l-4.243,4.243l-1.414-1.414
	L14.586,16l-4.243-4.243l1.414-1.414L16,14.586l4.243-4.243L21.657,11.757z" />
    </symbol>
    <!-- Retour en haut de page -->
    <symbol id="icon-toTop" viewBox="0 0 52 52">
        <path d="M9.66,10.17a2,2,0,0,1-2-2V4a2,2,0,0,1,2-2H42.34a2,2,0,0,1,2,2V8.13a2,2,0,0,1-2,2ZM24,50a2.12,2.12,0,0,1-2.05-2h0V30.6a1.3,1.3,0,0,0-2.24-.92h0l-4.8,4.69a2,2,0,0,1-2.86,0h0L9.15,31.62a1.86,1.86,0,0,1,0-2.76h0l15.42-15a2,2,0,0,1,2.86,0h0l15.32,15a1.86,1.86,0,0,1,0,2.76h0L40,34.37a2,2,0,0,1-2.86,0h0l-4.8-4.69a1.3,1.3,0,0,0-2.24.92h0V48A2.19,2.19,0,0,1,28,50H24Z" />
    </symbol>
    <!-- Editer EXIF -->
    <symbol id="icon-edit" viewBox="0 0 24 24">
      <path  d="M3.548,20.938h16.9a.5.5,0,0,0,0-1H3.548a.5.5,0,0,0,0,1Z"/>
      <path  d="M9.71,17.18a2.587,2.587,0,0,0,1.12-.65l9.54-9.54a1.75,1.75,0,0,0,0-2.47l-.94-.93a1.788,1.788,0,0,0-2.47,0L7.42,13.12a2.473,2.473,0,0,0-.64,1.12L6.04,17a.737.737,0,0,0,.19.72.767.767,0,0,0,.53.22Zm.41-1.36a1.468,1.468,0,0,1-.67.39l-.97.26-1-1,.26-.97a1.521,1.521,0,0,1,.39-.67l.38-.37,1.99,1.99Zm1.09-1.08L9.22,12.75l6.73-6.73,1.99,1.99Zm8.45-8.45L18.65,7.3,16.66,5.31l1.01-1.02a.748.748,0,0,1,1.06,0l.93.94A.754.754,0,0,1,19.66,6.29Z"/>
    </symbol>

</svg>

